#!OML:ASF F:\VICON\USERDATA\INSTALL\rory3\rory3.ASF
:FULLY-SPECIFIED
:DEGREES
46
root 0.8761234857494224 18.146957344027417 12.821651681395828 -3.9519893477399206 4.562211616319873 -3.8475952933505715
lfemur -14.395221912439801 -1.7763108530159288 -17.558247282225874
ltibia 28.25083198047519
lfoot 2.980799174034221 -3.9575436601227745
ltoes -6.189977178797443
rfemur -5.397216713075764 4.215217309548292 29.388454154510384
rtibia 25.767181167321823
rfoot -14.050080214339097 -7.068699810866506
rtoes 5.639674871036246
lowerback 10.85264834385515 -0.8440484212961066 2.6627577246590257
upperback -0.3605914850652062 -0.5377178295092253 2.1260310272475906
thorax -5.9107459547894985 -0.35065123907326184 1.1596086656886926
lowerneck -15.55488465823203 -3.1124308708839044 -3.4042926784532996
upperneck 22.194583662694857 -3.794385236225824 1.2272989438499993
head 9.68265831570285 -1.864939676737382 0.4727166617352007
lclavicle -2.0277084691639307e-15 -7.125508724045724e-16
lhumerus -32.275944712257626 0.2909578730697864 82.15341563460866
lradius 28.52555940110691
lwrist 9.201815258778531
lhand -31.049310732654693 17.535632245999462
lfingers 7.12502
lthumb -4.183366212898638 48.21721708872562
rclavicle -2.0334241358296788e-15 -7.161819121560663e-16
rhumerus -30.705676971656363 -22.94651954842014 -72.93042588392662
rradius 23.3752578637856
rwrist 6.596613518005475
rhand -17.93142327493678 21.8076049148938
rfingers 7.12502
rthumb 8.24698948354763 -8.150451207606093
47
root 0.8533286024272068 18.098492078646036 13.724420250848288 -4.868104789760347 2.1997110153758976 -4.1528130789340105
lfemur -14.657122869909529 -0.7045282948967113 -16.480400973721906
ltibia 25.823013288742295
lfoot 0.4418329095146696 -2.0846724004353776
ltoes -4.41884842850934
rfemur -4.848135660433833 5.458404693158821 29.70794537623501
rtibia 29.1394178525873
rfoot -15.810138842533844 -6.899513372363481
rtoes 6.170170031095941
lowerback 11.280304750006628 0.12958179015320004 2.1230501704579314
upperback -0.1090949371551972 0.7454213406833329 2.1111020498054707
thorax -5.995991864140609 0.3364726274524622 1.30504030071006
lowerneck -15.595806393815362 -3.1655995122883027 -3.37593489777505
upperneck 22.268040219337653 -3.8863365802338303 1.1988041832984884
head 9.72648664881076 -1.9026306773199342 0.44740426934607547
lclavicle -2.0305843250273052e-15 -7.14387806300556e-16
lhumerus -32.214379084968556 0.17462138435285857 82.03214624796068
lradius 27.3703183299273
lwrist 9.268877657685087
lhand -31.29767194890037 17.239409642021336
lfingers 7.12502
lthumb -4.383986733935595 47.96985063430322
rclavicle -2.0334846673325702e-15 -7.162205438633369e-16
rhumerus -29.888523835040036 -23.027273650525895 -73.23416052179819
rradius 24.287648350951525
rwrist 5.582767551300151
rhand -18.109930103377764 21.79404846357771
rfingers 7.12502
rthumb 8.19337250921916 -8.076837761383068
48
root 0.9070164445346542 18.058427420880037 15.248149457078071 -5.406529235143314 2.205112935969711 -0.63939653435038
lfemur -14.069483479497546 -1.9046079174818904 -19.374229625612703
ltibia 23.711078890979365
lfoot -1.4436239408177558 -0.2349377992076822
ltoes -3.203229387857685
rfemur -4.960633907302537 4.796806253606194 26.58439961322148
rtibia 33.576676006736406
rfoot -17.056820962853543 -7.327474548521073
rtoes 5.872111473424475
lowerback 11.315199934704097 0.16948569296342023 -0.5700212376389258
upperback 0.10785347783378996 0.2371316688660289 1.4052026995603546
thorax -5.877888112210702 0.12453462882615673 1.910923509585464
lowerneck -15.678655410276923 -3.2113115983132086 -3.2877817529085305
upperneck 22.254689229059547 -3.9879794199945753 1.3752177555657454
head 9.698690936788067 -1.9232265528612302 0.49332482232506303
lclavicle -2.029357238561411e-15 -7.13602643572335e-16
lhumerus -32.08419254227008 0.2229212037146726 81.83307991549289
lradius 26.175777850491354
lwrist 9.20899736832376
lhand -31.443394133385375 17.99431727157723
lfingers 7.12502
lthumb -4.673851807476373 48.53732057028665
rclavicle -2.032181804353898e-15 -7.15388582713103e-16
rhumerus -29.078292473274185 -22.951757508855643 -73.73948533494698
rradius 25.01393648728217
rwrist 4.708153658750121
rhand -18.29346230652829 21.478039833850005
rfingers 7.12502
rthumb 8.03996742131783 -8.335785013533307
49
root 0.9233441166367987 17.99732024159422 16.829906813616663 -5.309793026290727 2.1860680460001305 0.6157610227115282
lfemur -12.924630974814566 -2.8142487396803095 -20.14348726859292
ltibia 22.591595990677607
lfoot -3.706097292969142 0.36522207674382523
ltoes -4.414632769983537
rfemur -6.244457068639287 4.507542891912893 25.054253195890055
rtibia 38.8512549042646
rfoot -17.70175474293747 -8.535438343659083
rtoes 5.38928825503558
lowerback 11.393594328885557 0.26652202345486714 -1.5969027052693427
upperback 0.20072571434048778 0.22085555721800376 1.1054036090101964
thorax -5.891108663874167 0.11241705487416961 2.3355223045749685
lowerneck -15.73925554378839 -3.2505232141334424 -3.1546379166519842
upperneck 22.16643399070255 -4.063925059308129 1.420740288801128
head 9.635127429915949 -1.9498034309906662 0.4869977303419512
lclavicle -2.0303900104645017e-15 -7.142628477950467e-16
lhumerus -31.958393753780047 0.0786705540819379 81.6402500048073
lradius 25.118975438897632
lwrist 8.9462174711787
lhand -31.00053111347316 18.580724017288315
lfingers 7.12502
lthumb -4.358175302672013 48.552924631461536
rclavicle -2.0335039277373585e-15 -7.162327135316741e-16
rhumerus -28.416615598697312 -22.978228399656615 -74.48819067210259
rradius 25.504464663336567
rwrist 4.234850431692632
rhand -18.355591383572467 21.172873637048646
rfingers 7.12502
rthumb 7.850079012147595 -8.409842231010641
50
root 0.9240903721731207 17.918372420408602 18.084387544167694 -4.4840648274921895 2.825469778745902 2.5094501935621967
lfemur -11.086216815654454 -3.770741766587399 -21.723710514840118
ltibia 22.62503517172678
lfoot -6.045359577874541 0.6933928778731158
ltoes -2.554839203742044
rfemur -7.734598508173819 3.8949017228137723 23.062755428071846
rtibia 44.89931565811521
rfoot -17.83166248214314 -9.78891874215616
rtoes 3.996768312868001
lowerback 11.246080172796207 0.12128343438782159 -2.9288646884202727
upperback 0.17571851436967803 -0.2538424325552105 0.7459130557556242
thorax -5.875887189912116 -0.08361773655817689 3.0107142205501636
lowerneck -15.872943811604053 -3.2686795926477776 -2.920429880095674
upperneck 22.038241267390983 -4.143389281257488 1.4602871834065003
head 9.570775553825955 -1.9618319813912115 0.4542167907646407
lclavicle -2.0270016061343643e-15 -7.120941837816331e-16
lhumerus -31.70492278327628 -0.2691661359821014 81.46350042371704
lradius 24.235537015342867
lwrist 8.572105100492012
lhand -30.763340065453136 20.077841366806346
lfingers 7.12502
lthumb -4.354753194172804 50.018203434583995
rclavicle -2.0277991976086953e-15 -7.125901073709098e-16
rhumerus -27.961840383070808 -23.008270837134685 -75.52211694619976
rradius 25.785521444333266
rwrist 3.210593696082958
rhand -18.453562738276744 20.934511393750252
rfingers 7.12502
rthumb 7.815168549307662 -8.39039447376704
51
root 0.9889915033493092 17.86027857380762 18.444883380245884 -3.6189499669630005 3.2188052962217104 3.7349858608179183
lfemur -9.49137908566315 -4.248460777942756 -22.675855622773188
ltibia 23.225632914893104
lfoot -7.5911983346061085 1.2161198602455858
ltoes -1.5104095337818215
rfemur -9.591372464925296 3.3031666876725656 21.90750016512152
rtibia 50.18149341032385
rfoot -16.3651334137284 -10.683260352377717
rtoes 1.776339276992047
lowerback 11.209635998085869 0.04539721227399102 -3.258877066431544
upperback 0.09985666339744573 -0.375346164732739 0.6117494397242136
thorax -5.933911548831583 -0.14697723327708917 3.2065907977216326
lowerneck -16.034938157636127 -3.2919039647513597 -2.7615792185088672
upperneck 21.988276928946746 -4.207142070807228 1.4829850104165014
head 9.581693839639575 -1.983878109525313 0.43359293209954586
lclavicle -2.0286754517396995e-15 -7.131563469947238e-16
lhumerus -31.341668881259732 -0.5958301928534722 81.37815045150857
lradius 23.38943436831545
lwrist 7.52859495023728
lhand -30.7568055582543 20.895798009545963
lfingers 7.12502
lthumb -4.340426023181873 50.58556794589813
rclavicle -2.0289387838950382e-15 -7.133178186914809e-16
rhumerus -27.692890597710463 -22.885927332126446 -76.3827858154069
rradius 25.43788388057391
rwrist 2.268535074432646
rhand -18.60423625406817 20.932568291919136
rfingers 7.12502
rthumb 7.642903831420383 -8.515132795102934
52
root 1.028214491208713 17.81430576576961 18.86044918130783 -3.1888971001598314 3.4527739066426038 4.01444449026527
lfemur -7.806895748987367 -4.195352403640332 -22.98679765056113
ltibia 24.535780335035366
lfoot -8.546157077881578 1.827149370785465
ltoes -2.808591877906607
rfemur -11.494417098082195 2.5610707969990276 21.67293315144145
rtibia 54.516036927611104
rfoot -14.238759950281167 -10.98581105629714
rtoes 1.075847598321209
lowerback 11.402825484535212 -0.02756032263361291 -3.2566082286227234
upperback 0.09885225665726843 -0.4552989346012391 0.667677639843143
thorax -6.116068563628312 -0.17916618109367505 3.3804906380973363
lowerneck -16.172752840177736 -3.31390186032196 -2.6980092608305766
upperneck 21.874577030133707 -4.262604537316073 1.4979467744494832
head 9.58698766614483 -1.994868753885972 0.41474337326832705
lclavicle -2.027419669836231e-15 -7.123562264449505e-16
lhumerus -31.076542100389272 -0.5211956497682353 81.27825345987658
lradius 22.843364320975063
lwrist 6.039199534846674
lhand -30.425965522319334 21.529338830525433
lfingers 7.12502
lthumb -4.042220834707518 50.7885676656282
rclavicle -2.0248237869621047e-15 -7.106903595836085e-16
rhumerus -27.70618140357257 -22.795938641551274 -76.91839496045084
rradius 25.2965759578849
rwrist 1.3885069270672115
rhand -18.63904156485576 20.970759558720232
rfingers 7.12502
rthumb 7.531978393075924 -8.605744350689356
